<svg height="1080" preserveAspectRatio="xMidYMid meet" viewBox="0 0 1440 809.999993" width="1920" xmlns="http://www.w3.org/2000/svg" zoomAndPan="magnify"><g fill="#5e9cd5"><path d="m12.375-123.75c0-25.332031 4.785156-47.570312 14.359375-66.71875 9.570313-19.15625 22.609375-33.890625 39.109375-44.203125s34.914062-15.46875 55.25-15.46875c17.382812 0 32.628906 3.539063 45.734375 10.609375 13.113281 7.074219 23.207031 16.355469 30.28125 27.84375v-34.90625h75.5625v246.59375h-75.5625v-34.90625c-7.367187 11.492188-17.605469 20.773438-30.71875 27.84375-13.117187 7.0625-28.359375 10.59375-45.734375 10.59375-20.042969 0-38.3125-5.226562-54.8125-15.6875-16.5-10.457031-29.539062-25.332031-39.109375-44.625-9.574219-19.300781-14.359375-41.625-14.359375-66.96875zm184.734375.453125c0-18.851563-5.234375-33.726563-15.703125-44.625-10.460938-10.90625-23.199219-16.359375-38.21875-16.359375-15.023438 0-27.765625 5.375-38.234375 16.125-10.460937 10.75-15.6875 25.554688-15.6875 44.40625 0 18.867188 5.226563 33.824219 15.6875 44.875 10.46875 11.042969 23.210937 16.5625 38.234375 16.5625 15.019531 0 27.757812-5.445312 38.21875-16.34375 10.46875-10.90625 15.703125-25.785156 15.703125-44.640625zm0 0" transform="translate(21.986649 559.412636)"/><path d="m102.96875-211.6875c7.363281-11.488281 17.523438-20.769531 30.484375-27.84375 12.96875-7.070312 28.144531-10.609375 45.53125-10.609375 20.332031 0 38.742187 5.15625 55.234375 15.46875 16.5 10.3125 29.535156 25.046875 39.109375 44.203125 9.582031 19.148438 14.375 41.386719 14.375 66.71875 0 25.34375-4.792969 47.667969-14.375 66.96875-9.574219 19.292969-22.609375 34.167969-39.109375 44.625-16.492188 10.460938-34.902344 15.6875-55.234375 15.6875-17.085937 0-32.183594-3.53125-45.296875-10.59375-13.117188-7.070312-23.355469-16.207031-30.71875-27.40625v152.03125h-75.5625v-364.15625h75.5625zm107.828125 87.9375c0-18.851562-5.230469-33.65625-15.6875-44.40625-10.460937-10.75-23.34375-16.125-38.65625-16.125-15.03125 0-27.777344 5.453125-38.234375 16.359375-10.460938 10.898437-15.6875 25.773437-15.6875 44.625 0 18.855469 5.226562 33.734375 15.6875 44.640625 10.457031 10.898438 23.203125 16.34375 38.234375 16.34375 15.019531 0 27.832031-5.519531 38.4375-16.5625 10.601563-11.050781 15.90625-26.007812 15.90625-44.875zm0 0" transform="translate(322.039334 559.412636)"/><path d="m139.65625 3.53125c-24.167969 0-45.902344-5.15625-65.203125-15.46875-19.292969-10.3125-34.464844-25.039062-45.515625-44.1875-11.042969-19.15625-16.5625-41.546875-16.5625-67.171875 0-25.34375 5.597656-47.660156 16.796875-66.953125 11.195313-19.300781 26.515625-34.109375 45.953125-44.421875 19.445312-10.3125 41.25-15.46875 65.40625-15.46875 24.164062 0 45.96875 5.15625 65.40625 15.46875 19.445312 10.3125 34.769531 25.121094 45.96875 44.421875 11.195312 19.292969 16.796875 41.609375 16.796875 66.953125 0 25.335937-5.671875 47.652344-17.015625 66.953125-11.34375 19.292969-26.8125 34.09375-46.40625 44.40625s-41.46875 15.46875-65.625 15.46875zm0-65.40625c14.4375 0 26.734375-5.300781 36.890625-15.90625 10.164063-10.601562 15.25-25.773438 15.25-45.515625 0-19.738281-4.9375-34.910156-14.8125-45.515625-9.867187-10.613281-22.015625-15.921875-36.453125-15.921875-14.730469 0-26.960938 5.230469-36.6875 15.6875-9.71875 10.460937-14.578125 25.710937-14.578125 45.75 0 19.742187 4.785156 34.914063 14.359375 45.515625 9.582031 10.605469 21.59375 15.90625 36.03125 15.90625zm0 0" transform="translate(622.092019 559.412636)"/><path d="m102.96875-327.03125v327.03125h-75.5625v-327.03125zm0 0" transform="translate(903.584718 559.412636)"/><path d="m102.96875-327.03125v327.03125h-75.5625v-327.03125zm0 0" transform="translate(1033.946305 559.412636)"/><path d="m139.65625 3.53125c-24.167969 0-45.902344-5.15625-65.203125-15.46875-19.292969-10.3125-34.464844-25.039062-45.515625-44.1875-11.042969-19.15625-16.5625-41.546875-16.5625-67.171875 0-25.34375 5.597656-47.660156 16.796875-66.953125 11.195313-19.300781 26.515625-34.109375 45.953125-44.421875 19.445312-10.3125 41.25-15.46875 65.40625-15.46875 24.164062 0 45.96875 5.15625 65.40625 15.46875 19.445312 10.3125 34.769531 25.121094 45.96875 44.421875 11.195312 19.292969 16.796875 41.609375 16.796875 66.953125 0 25.335937-5.671875 47.652344-17.015625 66.953125-11.34375 19.292969-26.8125 34.09375-46.40625 44.40625s-41.46875 15.46875-65.625 15.46875zm0-65.40625c14.4375 0 26.734375-5.300781 36.890625-15.90625 10.164063-10.601562 15.25-25.773438 15.25-45.515625 0-19.738281-4.9375-34.910156-14.8125-45.515625-9.867187-10.613281-22.015625-15.921875-36.453125-15.921875-14.730469 0-26.960938 5.230469-36.6875 15.6875-9.71875 10.460937-14.578125 25.710937-14.578125 45.75 0 19.742187 4.785156 34.914063 14.359375 45.515625 9.582031 10.605469 21.59375 15.90625 36.03125 15.90625zm0 0" transform="translate(1164.30798 559.412636)"/></g><path d="m12.375-123.75c0-25.332031 4.785156-47.570312 14.359375-66.71875 9.570313-19.15625 22.609375-33.890625 39.109375-44.203125s34.914062-15.46875 55.25-15.46875c17.382812 0 32.628906 3.539063 45.734375 10.609375 13.113281 7.074219 23.207031 16.355469 30.28125 27.84375v-34.90625h75.5625v246.59375h-75.5625v-34.90625c-7.367187 11.492188-17.605469 20.773438-30.71875 27.84375-13.117187 7.0625-28.359375 10.59375-45.734375 10.59375-20.042969 0-38.3125-5.226562-54.8125-15.6875-16.5-10.457031-29.539062-25.332031-39.109375-44.625-9.574219-19.300781-14.359375-41.625-14.359375-66.96875zm184.734375.453125c0-18.851563-5.234375-33.726563-15.703125-44.625-10.460938-10.90625-23.199219-16.359375-38.21875-16.359375-15.023438 0-27.765625 5.375-38.234375 16.125-10.460937 10.75-15.6875 25.554688-15.6875 44.40625 0 18.867188 5.226563 33.824219 15.6875 44.875 10.46875 11.042969 23.210937 16.5625 38.234375 16.5625 15.019531 0 27.757812-5.445312 38.21875-16.34375 10.46875-10.90625 15.703125-25.785156 15.703125-44.640625zm0 0" transform="translate(2.455771 539.881756)"/><path d="m102.96875-211.6875c7.363281-11.488281 17.523438-20.769531 30.484375-27.84375 12.96875-7.070312 28.144531-10.609375 45.53125-10.609375 20.332031 0 38.742187 5.15625 55.234375 15.46875 16.5 10.3125 29.535156 25.046875 39.109375 44.203125 9.582031 19.148438 14.375 41.386719 14.375 66.71875 0 25.34375-4.792969 47.667969-14.375 66.96875-9.574219 19.292969-22.609375 34.167969-39.109375 44.625-16.492188 10.460938-34.902344 15.6875-55.234375 15.6875-17.085937 0-32.183594-3.53125-45.296875-10.59375-13.117188-7.070312-23.355469-16.207031-30.71875-27.40625v152.03125h-75.5625v-364.15625h75.5625zm107.828125 87.9375c0-18.851562-5.230469-33.65625-15.6875-44.40625-10.460937-10.75-23.34375-16.125-38.65625-16.125-15.03125 0-27.777344 5.453125-38.234375 16.359375-10.460938 10.898437-15.6875 25.773437-15.6875 44.625 0 18.855469 5.226562 33.734375 15.6875 44.640625 10.457031 10.898438 23.203125 16.34375 38.234375 16.34375 15.019531 0 27.832031-5.519531 38.4375-16.5625 10.601563-11.050781 15.90625-26.007812 15.90625-44.875zm0 0" transform="translate(302.508456 539.881756)"/><path d="m139.65625 3.53125c-24.167969 0-45.902344-5.15625-65.203125-15.46875-19.292969-10.3125-34.464844-25.039062-45.515625-44.1875-11.042969-19.15625-16.5625-41.546875-16.5625-67.171875 0-25.34375 5.597656-47.660156 16.796875-66.953125 11.195313-19.300781 26.515625-34.109375 45.953125-44.421875 19.445312-10.3125 41.25-15.46875 65.40625-15.46875 24.164062 0 45.96875 5.15625 65.40625 15.46875 19.445312 10.3125 34.769531 25.121094 45.96875 44.421875 11.195312 19.292969 16.796875 41.609375 16.796875 66.953125 0 25.335937-5.671875 47.652344-17.015625 66.953125-11.34375 19.292969-26.8125 34.09375-46.40625 44.40625s-41.46875 15.46875-65.625 15.46875zm0-65.40625c14.4375 0 26.734375-5.300781 36.890625-15.90625 10.164063-10.601562 15.25-25.773438 15.25-45.515625 0-19.738281-4.9375-34.910156-14.8125-45.515625-9.867187-10.613281-22.015625-15.921875-36.453125-15.921875-14.730469 0-26.960938 5.230469-36.6875 15.6875-9.71875 10.460937-14.578125 25.710937-14.578125 45.75 0 19.742187 4.785156 34.914063 14.359375 45.515625 9.582031 10.605469 21.59375 15.90625 36.03125 15.90625zm0 0" transform="translate(602.561141 539.881756)"/><path d="m102.96875-327.03125v327.03125h-75.5625v-327.03125zm0 0" transform="translate(884.05384 539.881756)"/><path d="m102.96875-327.03125v327.03125h-75.5625v-327.03125zm0 0" transform="translate(1014.415427 539.881756)"/><path d="m139.65625 3.53125c-24.167969 0-45.902344-5.15625-65.203125-15.46875-19.292969-10.3125-34.464844-25.039062-45.515625-44.1875-11.042969-19.15625-16.5625-41.546875-16.5625-67.171875 0-25.34375 5.597656-47.660156 16.796875-66.953125 11.195313-19.300781 26.515625-34.109375 45.953125-44.421875 19.445312-10.3125 41.25-15.46875 65.40625-15.46875 24.164062 0 45.96875 5.15625 65.40625 15.46875 19.445312 10.3125 34.769531 25.121094 45.96875 44.421875 11.195312 19.292969 16.796875 41.609375 16.796875 66.953125 0 25.335937-5.671875 47.652344-17.015625 66.953125-11.34375 19.292969-26.8125 34.09375-46.40625 44.40625s-41.46875 15.46875-65.625 15.46875zm0-65.40625c14.4375 0 26.734375-5.300781 36.890625-15.90625 10.164063-10.601562 15.25-25.773438 15.25-45.515625 0-19.738281-4.9375-34.910156-14.8125-45.515625-9.867187-10.613281-22.015625-15.921875-36.453125-15.921875-14.730469 0-26.960938 5.230469-36.6875 15.6875-9.71875 10.460937-14.578125 25.710937-14.578125 45.75 0 19.742187 4.785156 34.914063 14.359375 45.515625 9.582031 10.605469 21.59375 15.90625 36.03125 15.90625zm0 0" transform="translate(1144.777102 539.881756)"/><path d="m63.8125-66.859375v66.859375h-16.296875v-27.515625h-25.328125v27.515625h-16.28125v-66.859375h16.28125v26.1875h25.328125v-26.1875zm0 0" transform="translate(562.505892 679.093474)"/><path d="m37.515625.671875c-6.28125 0-12.042969-1.457031-17.28125-4.375-5.242187-2.925781-9.402344-7.007813-12.484375-12.25-3.074219-5.238281-4.609375-11.128906-4.609375-17.671875 0-6.53125 1.535156-12.398438 4.609375-17.609375 3.082031-5.207031 7.242188-9.269531 12.484375-12.1875 5.238281-2.925781 11-4.390625 17.28125-4.390625 6.289063 0 12.054687 1.464844 17.296875 4.390625 5.238281 2.917969 9.363281 6.980469 12.375 12.1875 3.019531 5.210937 4.53125 11.078125 4.53125 17.609375 0 6.542969-1.527344 12.433594-4.578125 17.671875-3.054687 5.242187-7.183594 9.324219-12.390625 12.25-5.199219 2.917969-10.945312 4.375-17.234375 4.375zm0-14.859375c5.332031 0 9.601563-1.773438 12.8125-5.328125 3.207031-3.5625 4.8125-8.265625 4.8125-14.109375 0-5.894531-1.605469-10.601562-4.8125-14.125-3.210937-3.53125-7.480469-5.296875-12.8125-5.296875-5.398437 0-9.699219 1.75-12.90625 5.25-3.199219 3.492187-4.796875 8.214844-4.796875 14.171875 0 5.90625 1.597656 10.625 4.796875 14.15625 3.207031 3.523438 7.507813 5.28125 12.90625 5.28125zm0 0" transform="translate(670.208466 679.093474)"/><path d="m30.09375.671875c-4.886719 0-9.265625-.789063-13.140625-2.375-3.875-1.59375-6.976563-3.941406-9.296875-7.046875-2.3125-3.113281-3.53125-6.863281-3.65625-11.25h17.328125c.257813 2.480469 1.117187 4.371094 2.578125 5.671875 1.457031 1.304687 3.363281 1.953125 5.71875 1.953125 2.40625 0 4.304688-.554688 5.703125-1.671875 1.394531-1.113281 2.09375-2.65625 2.09375-4.625 0-1.644531-.558594-3.003906-1.671875-4.078125-1.105469-1.082031-2.46875-1.972656-4.09375-2.671875-1.617188-.695313-3.914062-1.492187-6.890625-2.390625-4.324219-1.332031-7.851563-2.664062-10.578125-4-2.730469-1.332031-5.078125-3.300781-7.046875-5.90625-1.96875-2.601562-2.953125-6-2.953125-10.1875 0-6.21875 2.253906-11.085938 6.765625-14.609375 4.507813-3.53125 10.382813-5.296875 17.625-5.296875 7.363281 0 13.296875 1.765625 17.796875 5.296875 4.507812 3.523437 6.921875 8.421875 7.234375 14.703125h-17.609375c-.125-2.15625-.921875-3.851562-2.390625-5.09375-1.460937-1.238281-3.328125-1.859375-5.609375-1.859375-1.96875 0-3.558594.527344-4.765625 1.578125-1.210937 1.054688-1.8125 2.558594-1.8125 4.515625 0 2.167969 1.015625 3.855469 3.046875 5.0625 2.03125 1.199219 5.207031 2.496094 9.53125 3.890625 4.3125 1.46875 7.816406 2.871094 10.515625 4.203125 2.695313 1.335937 5.03125 3.273437 7 5.8125 1.96875 2.53125 2.953125 5.796875 2.953125 9.796875 0 3.8125-.96875 7.277344-2.90625 10.390625-1.929688 3.105469-4.734375 5.578125-8.421875 7.421875-3.679687 1.84375-8.027344 2.765625-13.046875 2.765625zm0 0" transform="translate(783.148519 679.093474)"/><path d="m56.859375-45.328125c0 3.875-.890625 7.417969-2.671875 10.625-1.78125 3.199219-4.515625 5.78125-8.203125 7.75-3.679687 1.96875-8.246094 2.953125-13.703125 2.953125h-10.09375v24h-16.28125v-66.859375h26.375c5.332031 0 9.835938.921875 13.515625 2.765625 3.6875 1.84375 6.453125 4.386719 8.296875 7.625 1.84375 3.242188 2.765625 6.953125 2.765625 11.140625zm-25.8125 8.375c3.113281 0 5.429687-.726563 6.953125-2.1875 1.519531-1.457031 2.28125-3.519531 2.28125-6.1875 0-2.664063-.761719-4.726563-2.28125-6.1875-1.523438-1.46875-3.839844-2.203125-6.953125-2.203125h-8.859375v16.765625zm0 0" transform="translate(879.80481 679.093474)"/><path d="m22.1875-66.859375v66.859375h-16.28125v-66.859375zm0 0" transform="translate(977.318126 679.093474)"/><path d="m54-66.859375v13.046875h-17.71875v53.8125h-16.28125v-53.8125h-17.71875v-13.046875zm0 0" transform="translate(1043.501869 679.093474)"/><path d="m47.515625-11.8125h-24.9375l-4 11.8125h-17.046875l24.1875-66.859375h18.84375l24.203125 66.859375h-17.25zm-4.1875-12.5625-8.28125-24.484375-8.1875 24.484375zm0 0" transform="translate(1137.872683 679.093474)"/><path d="m22.1875-12.578125h21.328125v12.578125h-37.609375v-66.859375h16.28125zm0 0" transform="translate(1246.146604 679.093474)"/></svg>