<svg xmlns="http://www.w3.org/2000/svg" xmlns:xlink="http://www.w3.org/1999/xlink" width="1080" zoomAndPan="magnify" viewBox="0 0 810 809.999993" height="1080" preserveAspectRatio="xMidYMid meet" version="1.0"><defs><clipPath id="18729d91d2"><path d="M 3.242188 0 L 810 0 L 810 807 L 3.242188 807 Z M 3.242188 0 " clip-rule="nonzero"/></clipPath></defs><g clip-path="url(#18729d91d2)"><path stroke-linecap="butt" transform="matrix(370.568156, 0, 0, 370.582424, -1580.364061, -777.463189)" fill="none" stroke-linejoin="miter" d="M 5.361659 2.153689 C 5.93174 2.153689 6.394048 2.616042 6.394048 3.186175 C 6.394048 3.756298 5.93173 4.21865 5.361659 4.21865 C 4.791589 4.21865 4.329271 3.756298 4.329271 3.186165 C 4.329271 2.616042 4.791589 2.153689 5.361659 2.153689 Z M 5.361659 2.153689 " stroke="#141516" stroke-width="0.111" stroke-opacity="1" stroke-miterlimit="4"/></g><path stroke-linecap="butt" transform="matrix(370.568156, 0, 0, 370.582424, -1580.364061, -777.463189)" fill="none" stroke-linejoin="miter" d="M 5.568995 2.983001 L 5.562997 2.983001 " stroke="#1f1a17" stroke-width="0.003" stroke-opacity="1" stroke-miterlimit="4"/><path fill="#141516" d="M 335.160156 108.566406 C 376.742188 104.757812 413.429688 134.054688 417.085938 173.988281 C 420.742188 213.917969 389.988281 249.390625 348.40625 253.199219 C 306.824219 257.007812 270.140625 227.710938 266.480469 187.777344 C 262.824219 147.847656 293.578125 112.375 335.160156 108.566406 Z M 335.160156 108.566406 " fill-opacity="1" fill-rule="evenodd"/><path fill="#141516" d="M 394.878906 444.128906 L 669.222656 443.78125 C 699.664062 443.746094 724.59375 421.5625 724.59375 394.40625 C 724.59375 358.167969 726.1875 309.074219 669.222656 308.828125 L 392.925781 307.617188 Z M 394.878906 444.128906 " fill-opacity="1" fill-rule="evenodd"/><path fill="#141516" d="M 399.285156 307.328125 L 163.824219 307.328125 C 136.1875 307.328125 113.578125 330.15625 113.578125 358.0625 C 113.578125 395.296875 112.136719 445.996094 163.824219 445.996094 C 200.550781 443.546875 220.792969 449.378906 237.128906 467.488281 C 242.574219 473.527344 244.066406 495.554688 245.363281 504.035156 L 245.363281 627.386719 C 245.363281 667.582031 270.648438 700.472656 301.546875 700.472656 L 347.957031 700.472656 C 378.855469 700.472656 413.980469 672.945312 413.542969 632.753906 L 411.621094 456.074219 L 412.089844 307.617188 Z M 399.285156 307.328125 " fill-opacity="1" fill-rule="evenodd"/><path fill="#464746" d="M 432.085938 281.484375 C 481.453125 276.960938 525.253906 314.367188 529.890625 365.011719 C 534.527344 415.65625 498.253906 460.390625 448.882812 464.914062 C 399.515625 469.433594 355.71875 432.03125 351.082031 381.386719 C 346.445312 330.742188 382.71875 286.003906 432.085938 281.484375 Z M 432.085938 281.484375 " fill-opacity="1" fill-rule="evenodd"/><path stroke-linecap="butt" transform="matrix(370.568156, 0, 0, 370.582424, -1580.364061, -777.463189)" fill="none" stroke-linejoin="miter" d="M 5.215157 3.043157 L 5.324364 3.043937 L 5.367594 2.936526 L 5.382763 3.10226 L 5.412605 3.022592 L 5.478372 3.016573 L 5.485129 3.090232 L 5.538583 2.920862 L 5.550674 3.110756 L 5.57455 3.052865 L 5.575699 2.978479 L 5.633107 2.997094 L 5.627404 3.050673 L 5.689344 3.039921 " stroke="#ffffff" stroke-width="0.014" stroke-opacity="1" stroke-miterlimit="4"/></svg>