<svg height="1080" preserveAspectRatio="xMidYMid meet" viewBox="0 0 810 809.999993" width="1080" xmlns="http://www.w3.org/2000/svg" xmlns:xlink="http://www.w3.org/1999/xlink" zoomAndPan="magnify"><clipPath id="a"><path d="m72.144531 72.144531h666v666h-666zm0 0"/></clipPath><path d="m-81-80.999999h972v971.999992h-972z" fill="#fff"/><path d="m-81-80.999999h972v971.999992h-972z" fill="#fff"/><g clip-path="url(#a)"><path d="m5.36166 2.153694c.57008 0 1.032387.46235 1.032387 1.032474 0 .570137-.462307 1.032487-1.032387 1.032487-.570081 0-1.032387-.462363-1.032387-1.032487s.462306-1.032474 1.032387-1.032474zm0 0" fill="none" stroke="#141516" stroke-width=".111" transform="matrix(305.795435 0 0 305.8339 -1234.51635 -569.281943)"/></g><path d="m5.568995 2.982997h-.005991" fill="none" stroke="#1f1a17" stroke-width=".003" transform="matrix(305.795435 0 0 305.8339 -1234.51635 -569.281943)"/><g fill-rule="evenodd"><g fill="#141516"><path d="m346.1875 161.9375c34.316406-3.140625 64.589844 21.035156 67.605469 53.992188 3.019531 32.957031-22.359375 62.230468-56.675781 65.371093-34.3125 3.144531-64.585938-21.035156-67.605469-53.988281-3.015625-32.957031 22.363281-62.230469 56.675781-65.371094zm0 0"/><path d="m395.46875 438.871094 226.390625-.285156c25.121094-.03125 45.691406-18.335938 45.691406-40.746094 0-29.910156 1.316407-70.425782-45.691406-70.628906l-228-1zm0 0"/><path d="m399.105469 325.972656h-194.304688c-22.804687 0-41.464843 18.839844-41.464843 41.871094 0 30.730469-1.191407 72.570312 41.464843 72.570312 30.308594-2.019531 47.011719 2.792969 60.488281 17.734376 4.496094 4.984374 5.726563 23.164062 6.796876 30.164062v101.800781c0 33.171875 20.863281 60.316407 46.363281 60.316407h38.300781c25.496094 0 54.480469-22.71875 54.121094-55.886719l-1.585938-145.8125.382813-122.519531zm0 0"/></g><path d="m426.171875 304.644531c40.738281-3.730469 76.878906 27.136719 80.707031 68.933594s-26.105468 78.714844-66.84375 82.445313c-40.738281 3.734374-76.882812-27.136719-80.707031-68.929688-3.828125-41.796875 26.105469-78.71875 66.84375-82.449219zm0 0" fill="#464746"/></g><path d="m5.215154 3.043155.109218.000779.043215-.107416.015175.165735.029853-.079662.065761-.006016.006745.073659.053459-.169375.012097.1899.023875-.057897.00115-.074387.057406.018622-.00571.053581.061942-.010755" fill="none" stroke="#fff" stroke-width=".014" transform="matrix(305.795435 0 0 305.8339 -1234.51635 -569.281943)"/></svg>